<svg width="175" height="171" viewBox="0 0 175 171" fill="none" xmlns="http://www.w3.org/2000/svg">
<path d="M55.712 170.88C45.536 170.88 37.088 170.4 30.368 169.44C26.912 169.248 22.784 168.48 17.984 167.136L8.768 162.816H7.04C6.464 162.816 5.888 162.336 5.312 161.376C5.12 161.184 4.928 160.896 4.736 160.512C4.736 159.936 4.544 159.264 4.16 158.496C3.2 156 2.624 153.12 2.432 149.856C2.24 146.4 2.144 143.04 2.144 139.776C2.144 135.552 2.24 132.384 2.432 130.272C2.432 129.12 2.432 127.776 2.432 126.24C2.624 124.704 2.624 122.976 2.432 121.056C1.28 85.344 0.704001 58.848 0.704001 41.568V33.792V27.456C0.704001 24.576 0.800001 22.368 0.992001 20.832C0.992001 19.488 1.184 16.896 1.568 13.056C1.76 13.056 1.952 12.864 2.144 12.48C2.336 12.096 2.528 11.808 2.72 11.616C2.528 11.808 3.776 10.752 6.464 8.44799C7.04 7.87199 8 7.00799 9.344 5.85599C9.92 5.472 10.4 5.088 10.784 4.70399C11.36 4.32 11.936 3.936 12.512 3.55199C13.28 2.976 13.856 2.304 14.24 1.536C15.584 1.72799 17.6 1.82399 20.288 1.82399C23.552 1.82399 26.432 1.72799 28.928 1.536C31.424 1.34399 33.536 1.15199 35.264 0.959988C39.68 0.383995 46.496 0.0959988 55.712 0.0959988C68.96 0.0959988 84.32 1.248 101.792 3.55199C102.944 3.74399 104.96 4.03199 107.84 4.41599C110.72 4.60799 113.408 4.99199 115.904 5.568C127.616 6.91199 137.312 9.31199 144.992 12.768C154.784 16.992 161.696 22.848 165.728 30.336C168.032 34.56 169.184 39.36 169.184 44.736C169.184 47.424 168.992 49.728 168.608 51.648C168.224 55.488 167.936 57.696 167.744 58.272C166.592 61.92 164.48 65.376 161.408 68.64C157.952 72.48 154.88 74.88 152.192 75.84C152.192 76.224 151.616 76.608 150.464 76.992C150.272 76.992 149.12 77.472 147.008 78.432C146.624 78.624 146.048 78.912 145.28 79.296C144.704 79.488 144.224 79.68 143.84 79.872L141.824 80.736C139.712 82.08 138.464 83.04 138.08 83.616L139.232 84.48C145.376 87.168 150.464 89.664 154.496 91.968C158.528 94.272 161.984 96.96 164.864 100.032C171.584 107.328 174.944 116.64 174.944 127.968V130.56C174.944 131.712 174.752 132.288 174.368 132.288L173.504 134.016L172.064 136.032C171.296 136.8 170.336 137.856 169.184 139.2C168.032 140.544 166.592 141.984 164.864 143.52L161.408 146.4C158.72 148.704 156.032 150.528 153.344 151.872C150.656 153.024 147.104 154.272 142.688 155.616C142.112 156 140.576 156.672 138.08 157.632C134.816 159.168 132.416 160.128 130.88 160.512C128.384 161.472 126.08 162.336 123.968 163.104C121.856 163.872 120.128 164.544 118.784 165.12C116.864 165.504 114.56 165.696 111.872 165.696L101.504 167.136C90.752 168.288 84.608 168.864 83.072 168.864C81.92 169.248 80 169.44 77.312 169.44C75.584 169.632 73.568 169.728 71.264 169.728L70.112 170.304L68.96 170.88H55.712ZM85.664 60.576H86.528C86.912 60.576 87.2 60.576 87.392 60.576C87.776 60.384 87.968 60.288 87.968 60.288C90.272 59.328 93.248 57.984 96.896 56.256L103.232 53.376C104.384 52.8 106.688 51.744 110.144 50.208C110.912 49.632 111.488 49.248 111.872 49.056C112.448 48.864 112.832 48.768 113.024 48.768L115.904 47.328C115.328 46.176 114.176 45.216 112.448 44.448C110.912 43.68 108.704 42.816 105.824 41.856C101.024 40.896 97.184 40.416 94.304 40.416C89.12 40.416 85.856 42.144 84.512 45.6C83.552 47.904 83.072 52.128 83.072 58.272C83.072 58.464 83.072 58.848 83.072 59.424C83.072 59.808 83.168 60.096 83.36 60.288C83.552 60.48 83.936 60.576 84.512 60.576H85.664ZM81.92 130.56C82.112 130.56 82.208 130.464 82.208 130.272L120.512 112.416L122.528 110.688C121.76 110.304 120.992 110.112 120.224 110.112L117.92 108.96C116.192 108.576 113.984 108.288 111.296 108.096C108.608 107.712 106.304 107.232 104.384 106.656C103.04 106.656 101.12 106.56 98.624 106.368C96.128 105.984 93.824 105.792 91.712 105.792H82.208C80.672 105.792 79.904 107.04 79.904 109.536V129.408C79.904 130.176 80.384 130.56 81.344 130.56H81.92Z" fill="black"/>
</svg>
